<svg viewBox="0 0 363 273" fill="none" xmlns="http://www.w3.org/2000/svg">
<g clip-path="url(#clip0)">
<path d="M273.571 83.6695H91.5138V84.569H273.571V83.6695Z" fill="#CCCCCC"/>
<path d="M182.848 0.4505H181.949V84.1183H182.848V0.4505Z" fill="#CCCCCC"/>
<path d="M259.064 41.8348H105.733V42.7343H259.064V41.8348Z" fill="#CCCCCC"/>
<path d="M211.394 148.568C211.395 153.144 209.736 157.564 206.726 161.007C206.456 161.318 206.173 161.615 205.886 161.907H179.155C178.867 161.615 178.584 161.318 178.315 161.007C176.549 158.993 175.233 156.624 174.456 154.059C174.456 154.059 174.46 154.059 174.456 154.055C173.918 152.275 173.645 150.426 173.647 148.568C173.646 147.802 173.692 147.038 173.786 146.279C174.345 141.703 176.556 137.49 180.002 134.432C183.448 131.374 187.891 129.683 192.496 129.677C197.101 129.671 201.549 131.351 205.003 134.399C208.457 137.448 210.679 141.655 211.25 146.229C211.346 147.005 211.394 147.786 211.394 148.568Z" fill="#2F2E41"/>
<path d="M168.732 161.907H166.423L168.215 161.008L168.269 160.981L168.283 161.008L168.732 161.907Z" fill="#2F2E41"/>
<path d="M184.47 161.907H182.16L182.61 161.008L182.623 160.981L182.677 161.008L184.47 161.907Z" fill="#2F2E41"/>
<path d="M191.199 150.404C194.761 150.404 197.649 147.513 197.649 143.947C197.649 140.38 194.761 137.489 191.199 137.489C187.636 137.489 184.748 140.38 184.748 143.947C184.748 147.513 187.636 150.404 191.199 150.404Z" fill="white"/>
<path d="M190.521 146.756C191.358 145.919 191.353 144.557 190.511 143.714C189.668 142.871 188.308 142.866 187.472 143.703C186.635 144.541 186.64 145.903 187.482 146.746C188.325 147.589 189.685 147.593 190.521 146.756Z" fill="#3F3D56"/>
<path d="M207.409 128.013C207.693 121.018 201.671 115.093 193.958 114.78C186.245 114.466 179.763 119.882 179.479 126.877C179.195 133.872 184.556 135.462 192.269 135.775C199.982 136.089 207.125 135.008 207.409 128.013Z" fill="#2686D4"/>
<path d="M197.704 156.015C197.805 156.571 197.796 157.142 197.676 157.694C197.557 158.247 197.33 158.77 197.009 159.235C196.688 159.7 196.278 160.097 195.803 160.404C195.329 160.71 194.799 160.92 194.243 161.021C193.687 161.122 193.117 161.113 192.565 160.994C192.013 160.874 191.49 160.648 191.026 160.326C190.561 160.004 190.165 159.594 189.859 159.119C189.553 158.644 189.343 158.113 189.242 157.557L189.24 157.548C188.817 155.209 190.624 154.381 192.961 153.957C195.298 153.534 197.281 153.675 197.704 156.015Z" fill="white"/>
<path d="M290.67 161.007H69.6349C67.4902 161.007 65.4333 161.86 63.9168 163.378C62.4003 164.896 61.5483 166.955 61.5483 169.102C61.5483 171.249 62.4003 173.308 63.9168 174.826C65.4333 176.344 67.4902 177.197 69.6349 177.197H290.67C292.814 177.197 294.871 176.344 296.388 174.826C297.904 173.308 298.756 171.249 298.756 169.102C298.756 166.955 297.904 164.896 296.388 163.378C294.871 161.86 292.814 161.007 290.67 161.007Z" fill="#CCCCCC"/>
<path d="M274.047 91.7468V161.456H273.149V91.7468C273.149 89.3317 273.054 86.9391 272.866 84.569C272.843 84.2676 272.821 83.9708 272.794 83.6695C271.507 69.0883 266.696 55.0394 258.777 42.7342C258.584 42.4329 258.39 42.1361 258.193 41.8347C249.976 29.3245 238.798 19.0414 225.653 11.9004C212.508 4.75936 197.803 0.981857 182.848 0.90398C182.699 0.899483 182.547 0.899478 182.398 0.899478C182.25 0.899478 182.098 0.899483 181.949 0.90398C180.247 0.908478 178.557 0.962447 176.882 1.06589C170.315 1.45839 163.812 2.56987 157.487 4.38046C153.904 5.40462 150.389 6.65132 146.961 8.1133C130.498 15.1505 116.464 26.8771 106.604 41.8347C106.407 42.1361 106.213 42.4329 106.02 42.7342C98.1009 55.0394 93.2903 69.0883 92.0034 83.6695C91.9764 83.9708 91.9541 84.2676 91.9315 84.569C91.7428 86.9391 91.6485 89.3317 91.6485 91.7468V161.456H90.75V91.7468C90.75 89.0124 90.8683 86.3095 91.1049 83.638C92.413 68.6919 97.39 54.301 105.593 41.7448C117.786 22.9683 136.412 9.29948 157.968 3.31008C164.278 1.56277 170.758 0.501258 177.295 0.14392C178.984 0.0494746 180.685 0.00149913 182.398 0C205.3 0.0229817 227.366 8.61929 244.259 24.0997C261.151 39.5801 271.65 60.8253 273.692 83.6605C273.926 86.323 274.044 89.0184 274.047 91.7468Z" fill="#3F3D56"/>
<path d="M157.076 225.803C182.51 226.237 182.506 264.11 157.075 264.541C131.643 264.106 131.647 226.234 157.076 225.803Z" fill="#2F2E41"/>
<path d="M154.137 260.373H148.259V270.915H154.137V260.373Z" fill="#2F2E41"/>
<path d="M165.893 260.373H160.015V270.915H165.893V260.373Z" fill="#2F2E41"/>
<path d="M153.158 269.199C159.509 269.154 159.509 272.922 153.157 272.877C146.806 272.922 146.806 269.154 153.158 269.199Z" fill="#2F2E41"/>
<path d="M164.914 268.954C171.265 268.909 171.265 272.677 164.913 272.631C158.562 272.677 158.562 268.908 164.914 268.954Z" fill="#2F2E41"/>
<path d="M157.566 233.648C166.214 233.687 166.213 246.85 157.566 246.888C148.918 246.849 148.919 233.686 157.566 233.648Z" fill="white"/>
<path d="M157.566 238.061C160.426 238.02 160.426 242.517 157.566 242.475C154.706 242.516 154.706 238.019 157.566 238.061Z" fill="#3F3D56"/>
<path d="M138.308 227.159C134.673 210.567 162.517 204.346 166.274 220.908C167.836 227.912 162.718 230.495 154.996 232.221C147.273 233.947 139.87 234.163 138.308 227.159Z" fill="#CCCCCC"/>
<path d="M165.51 173.804C170.018 161.988 175.699 164.162 171.184 175.975C166.677 187.791 160.995 185.617 165.51 173.804Z" fill="#2F2E41"/>
<path d="M131.365 186.414C135.868 161.351 173.21 167.422 169.562 192.62C165.059 217.681 127.717 211.611 131.365 186.414Z" fill="#2F2E41"/>
<path d="M147.525 204.717H141.647V215.26H147.525V204.717Z" fill="#2F2E41"/>
<path d="M159.281 204.717H153.403V215.26H159.281V204.717Z" fill="#2F2E41"/>
<path d="M146.545 213.544C152.896 213.498 152.896 217.267 146.545 217.221C140.193 217.266 140.193 213.498 146.545 213.544Z" fill="#2F2E41"/>
<path d="M158.301 213.298C164.652 213.253 164.652 217.022 158.301 216.976C151.949 217.021 151.949 213.253 158.301 213.298Z" fill="#2F2E41"/>
<path d="M131.695 171.503C128.06 154.912 155.905 148.691 159.662 165.253C161.224 172.256 156.106 174.839 148.383 176.566C140.66 178.292 133.257 178.508 131.695 171.503Z" fill="#2686D4"/>
<path d="M119.93 176.379C121.298 172.695 139.397 181.289 137.412 184.679C136.044 188.362 117.944 179.769 119.93 176.379Z" fill="#2F2E41"/>
<path d="M218.289 162.96C219.53 161.893 217.785 157.819 214.39 153.86C210.995 149.901 207.236 147.556 205.995 148.623C204.753 149.69 206.499 153.764 209.894 157.723C213.289 161.682 217.047 164.027 218.289 162.96Z" fill="#2F2E41"/>
<path d="M175.199 157.723C178.594 153.764 180.339 149.69 179.098 148.623C177.857 147.556 174.098 149.901 170.703 153.86C167.308 157.819 165.562 161.893 166.804 162.96C168.045 164.027 171.804 161.682 175.199 157.723Z" fill="#2F2E41"/>
<path d="M342.783 61.1653H316.277C315.086 61.1653 313.943 60.6915 313.101 59.8481C312.258 59.0046 311.785 57.8607 311.785 56.6679C311.785 55.4751 312.258 54.3312 313.101 53.4878C313.943 52.6444 315.086 52.1705 316.277 52.1705V53.07C315.324 53.07 314.41 53.4491 313.736 54.1238C313.062 54.7986 312.683 55.7137 312.683 56.6679C312.683 57.6222 313.062 58.5373 313.736 59.212C314.41 59.8868 315.324 60.2658 316.277 60.2658H342.783V61.1653Z" fill="#E6E6E6"/>
<path d="M315.379 85.0015H288.873C287.681 85.0015 286.538 84.5277 285.696 83.6842C284.853 82.8408 284.38 81.6969 284.38 80.5041C284.38 79.3113 284.853 78.1674 285.696 77.324C286.538 76.4805 287.681 76.0067 288.873 76.0067V76.9062C287.919 76.9062 287.005 77.2853 286.331 77.96C285.657 78.6347 285.278 79.5499 285.278 80.5041C285.278 81.4583 285.657 82.3735 286.331 83.0482C287.005 83.7229 287.919 84.102 288.873 84.102H315.379V85.0015Z" fill="#E6E6E6"/>
<path d="M349.972 108.388V107.488C350.925 107.488 351.839 107.109 352.513 106.435C353.187 105.76 353.566 104.845 353.566 103.891C353.566 102.936 353.187 102.021 352.513 101.346C351.839 100.672 350.925 100.293 349.972 100.293H323.465V99.3932H349.972C351.163 99.3932 352.306 99.867 353.148 100.71C353.991 101.554 354.464 102.698 354.464 103.891C354.464 105.083 353.991 106.227 353.148 107.071C352.306 107.914 351.163 108.388 349.972 108.388Z" fill="#E6E6E6"/>
<path d="M358.507 26.5354V25.6359C359.461 25.6359 360.375 25.2568 361.049 24.5821C361.723 23.9074 362.101 22.9922 362.101 22.038C362.101 21.0838 361.723 20.1686 361.049 19.4939C360.375 18.8191 359.461 18.4401 358.507 18.4401H332.001V17.5406H358.507C359.699 17.5406 360.842 18.0144 361.684 18.8578C362.527 19.7013 363 20.8452 363 22.038C363 23.2308 362.527 24.3747 361.684 25.2181C360.842 26.0615 359.699 26.5354 358.507 26.5354Z" fill="#E6E6E6"/>
<path d="M317.176 35.0804H290.67C289.478 35.0804 288.335 34.6066 287.493 33.7632C286.65 32.9197 286.177 31.7758 286.177 30.583C286.177 29.3902 286.65 28.2463 287.493 27.4029C288.335 26.5595 289.478 26.0856 290.67 26.0856V26.9851C289.716 26.9851 288.802 27.3642 288.128 28.0389C287.454 28.7137 287.076 29.6288 287.076 30.583C287.076 31.5373 287.454 32.4524 288.128 33.1271C288.802 33.8019 289.716 34.1809 290.67 34.1809H317.176V35.0804Z" fill="#E6E6E6"/>
<path d="M58.4035 120.531H31.8973C30.7058 120.531 29.5631 120.057 28.7206 119.214C27.878 118.37 27.4047 117.226 27.4047 116.034C27.4047 114.841 27.878 113.697 28.7206 112.853C29.5631 112.01 30.7058 111.536 31.8973 111.536V112.436C30.9441 112.436 30.0299 112.815 29.3559 113.489C28.6819 114.164 28.3032 115.079 28.3032 116.034C28.3032 116.988 28.6819 117.903 29.3559 118.578C30.0299 119.252 30.9441 119.631 31.8973 119.631H58.4035V120.531Z" fill="#E6E6E6"/>
<path d="M72.3305 135.822V134.923C73.2837 134.923 74.1978 134.543 74.8719 133.869C75.5459 133.194 75.9245 132.279 75.9245 131.325C75.9245 130.37 75.5459 129.455 74.8719 128.781C74.1978 128.106 73.2837 127.727 72.3305 127.727H45.8243V126.827H72.3305C73.522 126.827 74.6647 127.301 75.5072 128.145C76.3497 128.988 76.823 130.132 76.823 131.325C76.823 132.517 76.3497 133.661 75.5072 134.505C74.6647 135.348 73.522 135.822 72.3305 135.822Z" fill="#E6E6E6"/>
<path d="M30.9988 144.367H4.49257C3.30107 144.367 2.15836 143.893 1.31584 143.05C0.47332 142.206 0 141.062 0 139.87C0 138.677 0.47332 137.533 1.31584 136.69C2.15836 135.846 3.30107 135.372 4.49257 135.372V136.272C3.53937 136.272 2.6252 136.651 1.95119 137.326C1.27717 138 0.898515 138.915 0.898515 139.87C0.898515 140.824 1.27717 141.739 1.95119 142.414C2.6252 143.089 3.53937 143.468 4.49257 143.468H30.9988V144.367Z" fill="#E6E6E6"/>
<path d="M60.2005 70.6099H33.6943C32.5028 70.6099 31.3601 70.1361 30.5176 69.2926C29.675 68.4492 29.2017 67.3053 29.2017 66.1125C29.2017 64.9197 29.675 63.7758 30.5176 62.9324C31.3601 62.0889 32.5028 61.6151 33.6943 61.6151V62.5146C32.7411 62.5146 31.8269 62.8937 31.1529 63.5684C30.4789 64.2431 30.1002 65.1583 30.1002 66.1125C30.1002 67.0667 30.4789 67.9819 31.1529 68.6566C31.8269 69.3313 32.7411 69.7104 33.6943 69.7104H60.2005V70.6099Z" fill="#E6E6E6"/>
<path d="M74.1275 85.901V85.0016C75.0807 85.0016 75.9948 84.6225 76.6689 83.9477C77.3429 83.273 77.7215 82.3579 77.7215 81.4036C77.7215 80.4494 77.3429 79.5343 76.6689 78.8595C75.9948 78.1848 75.0807 77.8057 74.1275 77.8057H47.6213V76.9062H74.1275C75.319 76.9062 76.4617 77.3801 77.3042 78.2235C78.1467 79.0669 78.62 80.2109 78.62 81.4036C78.62 82.5964 78.1467 83.7403 77.3042 84.5838C76.4617 85.4272 75.319 85.901 74.1275 85.901Z" fill="#E6E6E6"/>
<path d="M32.7958 94.4461H6.28963C5.09813 94.4461 3.95542 93.9722 3.1129 93.1288C2.27038 92.2854 1.79706 91.1415 1.79706 89.9487C1.79706 88.7559 2.27038 87.612 3.1129 86.7685C3.95542 85.9251 5.09813 85.4513 6.28963 85.4513V86.3508C5.33643 86.3508 4.42226 86.7298 3.74825 87.4046C3.07423 88.0793 2.69557 88.9945 2.69557 89.9487C2.69557 90.9029 3.07423 91.8181 3.74825 92.4928C4.42226 93.1675 5.33643 93.5466 6.28963 93.5466H32.7958V94.4461Z" fill="#E6E6E6"/>
<path d="M251.135 209.13H224.629C223.437 209.13 222.294 208.656 221.452 207.812C220.609 206.969 220.136 205.825 220.136 204.632C220.136 203.439 220.609 202.295 221.452 201.452C222.294 200.609 223.437 200.135 224.629 200.135V201.034C223.675 201.034 222.761 201.413 222.087 202.088C221.413 202.763 221.035 203.678 221.035 204.632C221.035 205.586 221.413 206.502 222.087 207.176C222.761 207.851 223.675 208.23 224.629 208.23H251.135V209.13Z" fill="#E6E6E6"/>
<path d="M280.786 233.415V232.516C281.739 232.516 282.653 232.137 283.327 231.462C284.001 230.787 284.38 229.872 284.38 228.918C284.38 227.964 284.001 227.049 283.327 226.374C282.653 225.699 281.739 225.32 280.786 225.32H254.28V224.421H280.786C281.977 224.421 283.12 224.895 283.963 225.738C284.805 226.581 285.278 227.725 285.278 228.918C285.278 230.111 284.805 231.255 283.963 232.098C283.12 232.942 281.977 233.415 280.786 233.415Z" fill="#E6E6E6"/>
<path d="M226.875 237.913H200.369C199.177 237.913 198.035 237.439 197.192 236.596C196.35 235.752 195.876 234.608 195.876 233.415C195.876 232.223 196.35 231.079 197.192 230.235C198.035 229.392 199.177 228.918 200.369 228.918V229.818C199.416 229.818 198.501 230.197 197.827 230.871C197.153 231.546 196.775 232.461 196.775 233.415C196.775 234.37 197.153 235.285 197.827 235.96C198.501 236.634 199.416 237.013 200.369 237.013H226.875V237.913Z" fill="#E6E6E6"/>
<path d="M130.734 235.664V234.765C131.687 234.765 132.601 234.386 133.275 233.711C133.949 233.036 134.328 232.121 134.328 231.167C134.328 230.213 133.949 229.297 133.275 228.623C132.601 227.948 131.687 227.569 130.734 227.569H104.228V226.669H130.734C131.925 226.669 133.068 227.143 133.911 227.987C134.753 228.83 135.226 229.974 135.226 231.167C135.226 232.36 134.753 233.503 133.911 234.347C133.068 235.19 131.925 235.664 130.734 235.664Z" fill="#E6E6E6"/>
<path d="M50.7661 246.908H24.2599C23.0684 246.908 21.9257 246.434 21.0832 245.59C20.2407 244.747 19.7673 243.603 19.7673 242.41C19.7673 241.217 20.2407 240.074 21.0832 239.23C21.9257 238.387 23.0684 237.913 24.2599 237.913V238.812C23.3067 238.812 22.3925 239.191 21.7185 239.866C21.0445 240.541 20.6658 241.456 20.6658 242.41C20.6658 243.364 21.0445 244.28 21.7185 244.954C22.3925 245.629 23.3067 246.008 24.2599 246.008H50.7661V246.908Z" fill="#E6E6E6"/>
<path d="M229.519 272.993H58.3522C58.233 272.993 58.1187 272.945 58.0345 272.861C57.9502 272.776 57.9029 272.662 57.9029 272.543C57.9029 272.424 57.9502 272.309 58.0345 272.225C58.1187 272.14 58.233 272.093 58.3522 272.093H229.519C229.638 272.093 229.753 272.14 229.837 272.225C229.921 272.309 229.968 272.424 229.968 272.543C229.968 272.662 229.921 272.776 229.837 272.861C229.753 272.945 229.638 272.993 229.519 272.993Z" fill="#3F3D56"/>
<path d="M83.8001 272.646C83.454 273.442 82.295 272.754 82.6364 271.967C84.2243 268.246 85.3077 264.328 85.8575 260.319C86.7931 253.441 86.265 246.443 84.3077 239.784C84.2358 239.545 84.1638 239.303 84.0921 239.064C83.9212 238.516 83.7415 237.967 83.5529 237.427C81.4012 231.146 77.9264 225.4 73.3636 220.58C72.7663 219.95 73.7185 218.997 74.3161 219.626C77.2076 222.656 79.6769 226.063 81.6569 229.755C82.6032 231.512 83.4404 233.327 84.1638 235.187C84.447 235.912 84.712 236.645 84.9636 237.378C86.4357 241.746 87.3136 246.294 87.5738 250.897C88.0138 258.341 86.722 265.786 83.8001 272.646Z" fill="#3F3D56"/>
<path d="M94.0881 203.913C92.592 209.395 91.0975 214.877 89.6045 220.36C88.0544 226.035 86.5075 231.708 84.9636 237.378C84.7434 238.183 84.5247 238.985 84.3077 239.784C84.2357 239.545 84.1638 239.303 84.0921 239.064C83.9212 238.516 83.7415 237.967 83.5529 237.427C83.7551 236.681 83.9571 235.934 84.1638 235.187C84.4424 234.167 84.721 233.146 84.9996 232.125C87.5962 222.599 90.1929 213.075 92.7896 203.553C92.8418 203.386 92.9568 203.245 93.1104 203.162C93.264 203.078 93.4442 203.057 93.6128 203.104C93.7814 203.15 93.9252 203.261 94.0139 203.412C94.1026 203.563 94.1292 203.742 94.0881 203.913Z" fill="#3F3D56"/>
<path d="M66.3748 205.877C65.5893 207.603 64.7967 209.35 64.4568 211.216C64.1168 213.081 64.2716 215.107 65.2795 216.712C66.1366 217.939 67.2814 218.936 68.6135 219.617C70.4944 220.691 72.9403 221.45 74.7391 220.243C76.556 219.024 76.7491 216.271 75.7312 214.333C74.7133 212.395 72.8221 211.095 70.9772 209.92C69.1324 208.744 67.6865 207.814 66.4902 205.981L66.3748 205.877Z" fill="#2686D4"/>
<path d="M98.3855 188.297C96.5859 188.889 94.7654 189.49 93.1651 190.504C91.5648 191.518 90.182 193.006 89.6861 194.835C89.3661 196.298 89.4096 197.817 89.8127 199.258C90.2991 201.371 91.3999 203.685 93.5054 204.191C95.632 204.702 97.7853 202.978 98.5184 200.915C99.2515 198.852 98.924 196.579 98.5369 194.424C98.1498 192.27 97.8524 190.575 98.3874 188.452L98.3855 188.297Z" fill="#2686D4"/>
<path d="M66.0928 227.232C66.5927 229.061 67.1012 230.911 68.0329 232.562C68.9646 234.213 70.379 235.67 72.1799 236.257C73.6229 236.65 75.1403 236.683 76.5989 236.352C78.7306 235.972 81.0948 234.987 81.7052 232.907C82.3217 230.807 80.7089 228.568 78.6878 227.731C76.6666 226.895 74.3826 227.108 72.2134 227.387C70.0442 227.666 68.339 227.879 66.2479 227.238L66.0928 227.232Z" fill="#2686D4"/>
<path d="M71.4839 251.068C71.9838 252.897 72.4924 254.747 73.424 256.398C74.3557 258.049 75.7702 259.506 77.571 260.093C79.0141 260.487 80.5314 260.519 81.99 260.189C84.1217 259.808 86.4859 258.823 87.0963 256.744C87.7128 254.643 86.1001 252.404 84.0789 251.567C82.0577 250.731 79.7737 250.945 77.6045 251.224C75.4353 251.503 73.7301 251.715 71.639 251.074L71.4839 251.068Z" fill="#2686D4"/>
<path d="M101.031 235.327C100.531 237.156 100.023 239.006 99.0908 240.657C98.1591 242.308 96.7447 243.765 94.9439 244.352C93.5008 244.746 91.9834 244.778 90.5248 244.448C88.3931 244.067 86.029 243.083 85.4186 241.003C84.8021 238.902 86.4148 236.663 88.436 235.827C90.4571 234.99 92.7412 235.204 94.9104 235.483C97.0796 235.762 98.7848 235.974 100.876 235.333L101.031 235.327Z" fill="#2686D4"/>
<path d="M106.422 211.041C105.922 212.87 105.414 214.72 104.482 216.371C103.55 218.022 102.136 219.479 100.335 220.067C98.8919 220.46 97.3745 220.493 95.9159 220.162C93.7842 219.781 91.4201 218.797 90.8097 216.717C90.1932 214.616 91.8059 212.377 93.827 211.541C95.8482 210.704 98.1322 210.918 100.301 211.197C102.471 211.476 104.176 211.688 106.267 211.047L106.422 211.041Z" fill="#2686D4"/>
</g>
<defs>
<clipPath id="clip0">
<rect width="363" height="273" fill="white"/>
</clipPath>
</defs>
</svg>
